<mxfile host="app.diagrams.net" agent="Mozilla/5.0 (Windows NT 10.0; Win64; x64) AppleWebKit/537.36 (KHTML, like Gecko) Chrome/130.0.0.0 Safari/537.36" version="24.8.3">
  <diagram name="Page-1" id="2mfNDn_aH2c4KqLtZZbP">
    <mxGraphModel grid="1" page="1" gridSize="10" guides="1" tooltips="1" connect="1" arrows="1" fold="1" pageScale="1" pageWidth="827" pageHeight="1169" math="0" shadow="0">
      <root>
        <mxCell id="0" />
        <mxCell id="1" parent="0" />
        <mxCell id="GA-MrlqgVM2owLJVnuF0-229" value="&lt;font style=&quot;font-size: 20px;&quot;&gt;Order&lt;/font&gt;" style="rounded=0;whiteSpace=wrap;html=1;" vertex="1" parent="1">
          <mxGeometry x="1740" y="130" width="120" height="60" as="geometry" />
        </mxCell>
        <mxCell id="GA-MrlqgVM2owLJVnuF0-77" value="" style="rhombus;whiteSpace=wrap;html=1;" vertex="1" parent="1">
          <mxGeometry x="1170" y="360" width="50" height="50" as="geometry" />
        </mxCell>
        <mxCell id="GA-MrlqgVM2owLJVnuF0-75" value="" style="rhombus;whiteSpace=wrap;html=1;" vertex="1" parent="1">
          <mxGeometry x="140" y="360" width="50" height="50" as="geometry" />
        </mxCell>
        <mxCell id="GA-MrlqgVM2owLJVnuF0-47" value="" style="rhombus;whiteSpace=wrap;html=1;" vertex="1" parent="1">
          <mxGeometry x="642.5" y="510" width="45" height="45" as="geometry" />
        </mxCell>
        <mxCell id="Yd8EfODOnMejqtZCiiyT-1" value="&lt;font style=&quot;font-size: 20px;&quot;&gt;Model&lt;/font&gt;" style="rounded=0;whiteSpace=wrap;html=1;" vertex="1" parent="1">
          <mxGeometry x="605" y="130" width="120" height="60" as="geometry" />
        </mxCell>
        <mxCell id="Yd8EfODOnMejqtZCiiyT-5" value="&lt;font style=&quot;font-size: 20px;&quot;&gt;User&lt;/font&gt;" style="rounded=0;whiteSpace=wrap;html=1;" vertex="1" parent="1">
          <mxGeometry x="1085" y="135" width="120" height="50" as="geometry" />
        </mxCell>
        <mxCell id="GA-MrlqgVM2owLJVnuF0-7" value="" style="endArrow=none;html=1;rounded=0;entryX=1;entryY=1;entryDx=0;entryDy=0;exitX=0.5;exitY=0;exitDx=0;exitDy=0;entryPerimeter=0;" edge="1" parent="1" source="Yd8EfODOnMejqtZCiiyT-1" target="GA-MrlqgVM2owLJVnuF0-183">
          <mxGeometry width="50" height="50" relative="1" as="geometry">
            <mxPoint x="560" y="150" as="sourcePoint" />
            <mxPoint x="525" y="-40" as="targetPoint" />
          </mxGeometry>
        </mxCell>
        <mxCell id="GA-MrlqgVM2owLJVnuF0-10" value="" style="endArrow=none;html=1;rounded=0;entryX=0.5;entryY=1;entryDx=0;entryDy=0;exitX=0.5;exitY=0;exitDx=0;exitDy=0;entryPerimeter=0;" edge="1" parent="1" source="Yd8EfODOnMejqtZCiiyT-1" target="GA-MrlqgVM2owLJVnuF0-193">
          <mxGeometry width="50" height="50" relative="1" as="geometry">
            <mxPoint x="560" y="170" as="sourcePoint" />
            <mxPoint x="687.5" y="-10" as="targetPoint" />
          </mxGeometry>
        </mxCell>
        <mxCell id="GA-MrlqgVM2owLJVnuF0-13" value="" style="endArrow=none;html=1;rounded=0;entryX=0.5;entryY=1;entryDx=0;entryDy=0;exitX=0.5;exitY=0;exitDx=0;exitDy=0;entryPerimeter=0;" edge="1" parent="1" source="Yd8EfODOnMejqtZCiiyT-1" target="GA-MrlqgVM2owLJVnuF0-197">
          <mxGeometry width="50" height="50" relative="1" as="geometry">
            <mxPoint x="540" y="160" as="sourcePoint" />
            <mxPoint x="800" as="targetPoint" />
          </mxGeometry>
        </mxCell>
        <mxCell id="GA-MrlqgVM2owLJVnuF0-35" value="" style="verticalLabelPosition=bottom;verticalAlign=top;html=1;shape=mxgraph.basic.frame;dx=10;whiteSpace=wrap;" vertex="1" parent="1">
          <mxGeometry x="602.5" y="350" width="125" height="70" as="geometry" />
        </mxCell>
        <mxCell id="GA-MrlqgVM2owLJVnuF0-36" value="&lt;span style=&quot;font-size: 20px;&quot;&gt;X-Series&lt;/span&gt;" style="text;html=1;align=center;verticalAlign=middle;resizable=0;points=[];autosize=1;strokeColor=none;fillColor=none;" vertex="1" parent="1">
          <mxGeometry x="615" y="365" width="100" height="40" as="geometry" />
        </mxCell>
        <mxCell id="GA-MrlqgVM2owLJVnuF0-37" value="" style="endArrow=none;html=1;rounded=0;entryX=0.5;entryY=1;entryDx=0;entryDy=0;exitX=0.5;exitY=0;exitDx=0;exitDy=0;exitPerimeter=0;" edge="1" parent="1" source="GA-MrlqgVM2owLJVnuF0-35" target="Yd8EfODOnMejqtZCiiyT-1">
          <mxGeometry width="50" height="50" relative="1" as="geometry">
            <mxPoint x="650" y="360" as="sourcePoint" />
            <mxPoint x="700" y="310" as="targetPoint" />
          </mxGeometry>
        </mxCell>
        <mxCell id="GA-MrlqgVM2owLJVnuF0-46" value="has" style="rhombus;whiteSpace=wrap;html=1;" vertex="1" parent="1">
          <mxGeometry x="647.5" y="517.5" width="35" height="30" as="geometry" />
        </mxCell>
        <mxCell id="GA-MrlqgVM2owLJVnuF0-48" value="" style="endArrow=none;html=1;rounded=0;entryX=0.5;entryY=1;entryDx=0;entryDy=0;entryPerimeter=0;exitX=0.5;exitY=0;exitDx=0;exitDy=0;" edge="1" parent="1" source="GA-MrlqgVM2owLJVnuF0-47" target="GA-MrlqgVM2owLJVnuF0-35">
          <mxGeometry width="50" height="50" relative="1" as="geometry">
            <mxPoint x="550" y="510" as="sourcePoint" />
            <mxPoint x="600" y="460" as="targetPoint" />
          </mxGeometry>
        </mxCell>
        <mxCell id="GA-MrlqgVM2owLJVnuF0-49" value="" style="verticalLabelPosition=bottom;verticalAlign=top;html=1;shape=mxgraph.basic.frame;dx=10;whiteSpace=wrap;" vertex="1" parent="1">
          <mxGeometry x="-15" y="790" width="160" height="80" as="geometry" />
        </mxCell>
        <mxCell id="GA-MrlqgVM2owLJVnuF0-52" value="&lt;span style=&quot;font-size: 20px;&quot;&gt;1-st Series&lt;/span&gt;" style="text;html=1;align=center;verticalAlign=middle;resizable=0;points=[];autosize=1;strokeColor=none;fillColor=none;" vertex="1" parent="1">
          <mxGeometry x="5" y="810" width="120" height="40" as="geometry" />
        </mxCell>
        <mxCell id="GA-MrlqgVM2owLJVnuF0-65" value="" style="verticalLabelPosition=bottom;verticalAlign=top;html=1;shape=mxgraph.basic.frame;dx=10;whiteSpace=wrap;" vertex="1" parent="1">
          <mxGeometry x="410" y="350" width="180" height="70" as="geometry" />
        </mxCell>
        <mxCell id="GA-MrlqgVM2owLJVnuF0-66" value="" style="verticalLabelPosition=bottom;verticalAlign=top;html=1;shape=mxgraph.basic.frame;dx=10;whiteSpace=wrap;" vertex="1" parent="1">
          <mxGeometry x="740" y="350" width="200" height="70" as="geometry" />
        </mxCell>
        <mxCell id="GA-MrlqgVM2owLJVnuF0-67" value="&lt;font style=&quot;font-size: 20px;&quot;&gt;I-Series&lt;/font&gt;" style="text;html=1;align=center;verticalAlign=middle;resizable=0;points=[];autosize=1;strokeColor=none;fillColor=none;" vertex="1" parent="1">
          <mxGeometry x="452.5" y="365" width="90" height="40" as="geometry" />
        </mxCell>
        <mxCell id="GA-MrlqgVM2owLJVnuF0-68" value="&lt;font style=&quot;font-size: 20px;&quot;&gt;M-Series&lt;/font&gt;" style="text;html=1;align=center;verticalAlign=middle;resizable=0;points=[];autosize=1;strokeColor=none;fillColor=none;" vertex="1" parent="1">
          <mxGeometry x="790" y="365" width="100" height="40" as="geometry" />
        </mxCell>
        <mxCell id="GA-MrlqgVM2owLJVnuF0-72" value="has" style="rhombus;whiteSpace=wrap;html=1;" vertex="1" parent="1">
          <mxGeometry x="147.5" y="370" width="35" height="30" as="geometry" />
        </mxCell>
        <mxCell id="GA-MrlqgVM2owLJVnuF0-73" value="has" style="rhombus;whiteSpace=wrap;html=1;" vertex="1" parent="1">
          <mxGeometry x="1177.5" y="370" width="35" height="30" as="geometry" />
        </mxCell>
        <mxCell id="GA-MrlqgVM2owLJVnuF0-78" value="" style="endArrow=none;html=1;rounded=0;entryX=0;entryY=0.5;entryDx=0;entryDy=0;entryPerimeter=0;exitX=1;exitY=0.5;exitDx=0;exitDy=0;" edge="1" parent="1" source="GA-MrlqgVM2owLJVnuF0-75" target="GA-MrlqgVM2owLJVnuF0-65">
          <mxGeometry width="50" height="50" relative="1" as="geometry">
            <mxPoint x="670" y="470" as="sourcePoint" />
            <mxPoint x="720" y="420" as="targetPoint" />
          </mxGeometry>
        </mxCell>
        <mxCell id="GA-MrlqgVM2owLJVnuF0-79" value="" style="endArrow=none;html=1;rounded=0;entryX=1;entryY=0.5;entryDx=0;entryDy=0;entryPerimeter=0;exitX=0;exitY=0.5;exitDx=0;exitDy=0;" edge="1" parent="1" source="GA-MrlqgVM2owLJVnuF0-77" target="GA-MrlqgVM2owLJVnuF0-66">
          <mxGeometry width="50" height="50" relative="1" as="geometry">
            <mxPoint x="640" y="470" as="sourcePoint" />
            <mxPoint x="690" y="420" as="targetPoint" />
          </mxGeometry>
        </mxCell>
        <mxCell id="GA-MrlqgVM2owLJVnuF0-81" value="" style="endArrow=none;html=1;rounded=0;entryX=0.5;entryY=1;entryDx=0;entryDy=0;exitX=0.5;exitY=0;exitDx=0;exitDy=0;exitPerimeter=0;" edge="1" parent="1" source="GA-MrlqgVM2owLJVnuF0-65" target="Yd8EfODOnMejqtZCiiyT-1">
          <mxGeometry width="50" height="50" relative="1" as="geometry">
            <mxPoint x="670" y="470" as="sourcePoint" />
            <mxPoint x="720" y="420" as="targetPoint" />
          </mxGeometry>
        </mxCell>
        <mxCell id="GA-MrlqgVM2owLJVnuF0-82" value="" style="endArrow=none;html=1;rounded=0;entryX=0.5;entryY=1;entryDx=0;entryDy=0;exitX=0.5;exitY=0;exitDx=0;exitDy=0;exitPerimeter=0;" edge="1" parent="1" source="GA-MrlqgVM2owLJVnuF0-66" target="Yd8EfODOnMejqtZCiiyT-1">
          <mxGeometry width="50" height="50" relative="1" as="geometry">
            <mxPoint x="510" y="360" as="sourcePoint" />
            <mxPoint x="675" y="300" as="targetPoint" />
          </mxGeometry>
        </mxCell>
        <mxCell id="GA-MrlqgVM2owLJVnuF0-89" value="" style="verticalLabelPosition=bottom;verticalAlign=top;html=1;shape=mxgraph.basic.frame;dx=10;whiteSpace=wrap;" vertex="1" parent="1">
          <mxGeometry x="155" y="790" width="160" height="80" as="geometry" />
        </mxCell>
        <mxCell id="GA-MrlqgVM2owLJVnuF0-90" value="&lt;span style=&quot;font-size: 20px;&quot;&gt;2-nd Series&lt;/span&gt;" style="text;html=1;align=center;verticalAlign=middle;resizable=0;points=[];autosize=1;strokeColor=none;fillColor=none;" vertex="1" parent="1">
          <mxGeometry x="170" y="810" width="130" height="40" as="geometry" />
        </mxCell>
        <mxCell id="GA-MrlqgVM2owLJVnuF0-91" value="" style="verticalLabelPosition=bottom;verticalAlign=top;html=1;shape=mxgraph.basic.frame;dx=10;whiteSpace=wrap;" vertex="1" parent="1">
          <mxGeometry x="327.5" y="790" width="160" height="80" as="geometry" />
        </mxCell>
        <mxCell id="GA-MrlqgVM2owLJVnuF0-92" value="&lt;span style=&quot;font-size: 20px;&quot;&gt;3-rd Series&lt;/span&gt;" style="text;html=1;align=center;verticalAlign=middle;resizable=0;points=[];autosize=1;strokeColor=none;fillColor=none;" vertex="1" parent="1">
          <mxGeometry x="347.5" y="810" width="120" height="40" as="geometry" />
        </mxCell>
        <mxCell id="GA-MrlqgVM2owLJVnuF0-93" value="" style="verticalLabelPosition=bottom;verticalAlign=top;html=1;shape=mxgraph.basic.frame;dx=10;whiteSpace=wrap;" vertex="1" parent="1">
          <mxGeometry x="500" y="790" width="160" height="80" as="geometry" />
        </mxCell>
        <mxCell id="GA-MrlqgVM2owLJVnuF0-94" value="&lt;span style=&quot;font-size: 20px;&quot;&gt;4-th Series&lt;/span&gt;" style="text;html=1;align=center;verticalAlign=middle;resizable=0;points=[];autosize=1;strokeColor=none;fillColor=none;" vertex="1" parent="1">
          <mxGeometry x="520" y="810" width="120" height="40" as="geometry" />
        </mxCell>
        <mxCell id="GA-MrlqgVM2owLJVnuF0-95" value="" style="verticalLabelPosition=bottom;verticalAlign=top;html=1;shape=mxgraph.basic.frame;dx=10;whiteSpace=wrap;" vertex="1" parent="1">
          <mxGeometry x="675" y="790" width="160" height="80" as="geometry" />
        </mxCell>
        <mxCell id="GA-MrlqgVM2owLJVnuF0-96" value="&lt;span style=&quot;font-size: 20px;&quot;&gt;5-th Series&lt;/span&gt;" style="text;html=1;align=center;verticalAlign=middle;resizable=0;points=[];autosize=1;strokeColor=none;fillColor=none;" vertex="1" parent="1">
          <mxGeometry x="695" y="810" width="120" height="40" as="geometry" />
        </mxCell>
        <mxCell id="GA-MrlqgVM2owLJVnuF0-97" value="" style="verticalLabelPosition=bottom;verticalAlign=top;html=1;shape=mxgraph.basic.frame;dx=10;whiteSpace=wrap;" vertex="1" parent="1">
          <mxGeometry x="845" y="790" width="160" height="80" as="geometry" />
        </mxCell>
        <mxCell id="GA-MrlqgVM2owLJVnuF0-98" value="&lt;span style=&quot;font-size: 20px;&quot;&gt;6-st Series&lt;/span&gt;" style="text;html=1;align=center;verticalAlign=middle;resizable=0;points=[];autosize=1;strokeColor=none;fillColor=none;" vertex="1" parent="1">
          <mxGeometry x="865" y="810" width="120" height="40" as="geometry" />
        </mxCell>
        <mxCell id="GA-MrlqgVM2owLJVnuF0-99" value="" style="verticalLabelPosition=bottom;verticalAlign=top;html=1;shape=mxgraph.basic.frame;dx=10;whiteSpace=wrap;" vertex="1" parent="1">
          <mxGeometry x="1015" y="790" width="160" height="80" as="geometry" />
        </mxCell>
        <mxCell id="GA-MrlqgVM2owLJVnuF0-100" value="&lt;span style=&quot;font-size: 20px;&quot;&gt;7-st Series&lt;/span&gt;" style="text;html=1;align=center;verticalAlign=middle;resizable=0;points=[];autosize=1;strokeColor=none;fillColor=none;" vertex="1" parent="1">
          <mxGeometry x="1035" y="810" width="120" height="40" as="geometry" />
        </mxCell>
        <mxCell id="GA-MrlqgVM2owLJVnuF0-101" value="" style="verticalLabelPosition=bottom;verticalAlign=top;html=1;shape=mxgraph.basic.frame;dx=10;whiteSpace=wrap;" vertex="1" parent="1">
          <mxGeometry x="1185" y="790" width="160" height="80" as="geometry" />
        </mxCell>
        <mxCell id="GA-MrlqgVM2owLJVnuF0-102" value="&lt;span style=&quot;font-size: 20px;&quot;&gt;8-st Series&lt;/span&gt;" style="text;html=1;align=center;verticalAlign=middle;resizable=0;points=[];autosize=1;strokeColor=none;fillColor=none;" vertex="1" parent="1">
          <mxGeometry x="1205" y="810" width="120" height="40" as="geometry" />
        </mxCell>
        <mxCell id="GA-MrlqgVM2owLJVnuF0-111" value="" style="endArrow=none;html=1;rounded=0;entryX=0.5;entryY=1;entryDx=0;entryDy=0;exitX=0.5;exitY=0;exitDx=0;exitDy=0;exitPerimeter=0;" edge="1" parent="1" source="GA-MrlqgVM2owLJVnuF0-49" target="GA-MrlqgVM2owLJVnuF0-47">
          <mxGeometry width="50" height="50" relative="1" as="geometry">
            <mxPoint x="145" y="640" as="sourcePoint" />
            <mxPoint x="580" y="580" as="targetPoint" />
            <Array as="points">
              <mxPoint x="160" y="640" />
            </Array>
          </mxGeometry>
        </mxCell>
        <mxCell id="GA-MrlqgVM2owLJVnuF0-112" value="" style="endArrow=none;html=1;rounded=0;entryX=0.5;entryY=1;entryDx=0;entryDy=0;exitX=0.5;exitY=0;exitDx=0;exitDy=0;exitPerimeter=0;" edge="1" parent="1" source="GA-MrlqgVM2owLJVnuF0-89" target="GA-MrlqgVM2owLJVnuF0-47">
          <mxGeometry width="50" height="50" relative="1" as="geometry">
            <mxPoint x="155" y="650" as="sourcePoint" />
            <mxPoint x="590" y="590" as="targetPoint" />
            <Array as="points">
              <mxPoint x="290" y="680" />
            </Array>
          </mxGeometry>
        </mxCell>
        <mxCell id="GA-MrlqgVM2owLJVnuF0-113" value="" style="endArrow=none;html=1;rounded=0;entryX=0.5;entryY=1;entryDx=0;entryDy=0;exitX=0.5;exitY=0;exitDx=0;exitDy=0;exitPerimeter=0;" edge="1" parent="1" source="GA-MrlqgVM2owLJVnuF0-91" target="GA-MrlqgVM2owLJVnuF0-47">
          <mxGeometry width="50" height="50" relative="1" as="geometry">
            <mxPoint x="165" y="660" as="sourcePoint" />
            <mxPoint x="600" y="600" as="targetPoint" />
            <Array as="points">
              <mxPoint x="440" y="680" />
            </Array>
          </mxGeometry>
        </mxCell>
        <mxCell id="GA-MrlqgVM2owLJVnuF0-114" value="" style="endArrow=none;html=1;rounded=0;entryX=0.5;entryY=1;entryDx=0;entryDy=0;exitX=0.5;exitY=0;exitDx=0;exitDy=0;exitPerimeter=0;" edge="1" parent="1" source="GA-MrlqgVM2owLJVnuF0-93" target="GA-MrlqgVM2owLJVnuF0-47">
          <mxGeometry width="50" height="50" relative="1" as="geometry">
            <mxPoint x="175" y="670" as="sourcePoint" />
            <mxPoint x="610" y="610" as="targetPoint" />
          </mxGeometry>
        </mxCell>
        <mxCell id="GA-MrlqgVM2owLJVnuF0-115" value="" style="endArrow=none;html=1;rounded=0;entryX=0.5;entryY=1;entryDx=0;entryDy=0;exitX=0.5;exitY=0;exitDx=0;exitDy=0;exitPerimeter=0;" edge="1" parent="1" source="GA-MrlqgVM2owLJVnuF0-95" target="GA-MrlqgVM2owLJVnuF0-47">
          <mxGeometry width="50" height="50" relative="1" as="geometry">
            <mxPoint x="185" y="680" as="sourcePoint" />
            <mxPoint x="620" y="620" as="targetPoint" />
          </mxGeometry>
        </mxCell>
        <mxCell id="GA-MrlqgVM2owLJVnuF0-116" value="" style="endArrow=none;html=1;rounded=0;entryX=0.5;entryY=1;entryDx=0;entryDy=0;exitX=0.5;exitY=0;exitDx=0;exitDy=0;exitPerimeter=0;" edge="1" parent="1" source="GA-MrlqgVM2owLJVnuF0-97" target="GA-MrlqgVM2owLJVnuF0-47">
          <mxGeometry width="50" height="50" relative="1" as="geometry">
            <mxPoint x="195" y="690" as="sourcePoint" />
            <mxPoint x="630" y="630" as="targetPoint" />
            <Array as="points">
              <mxPoint x="840" y="680" />
            </Array>
          </mxGeometry>
        </mxCell>
        <mxCell id="GA-MrlqgVM2owLJVnuF0-117" value="" style="endArrow=none;html=1;rounded=0;entryX=0.5;entryY=1;entryDx=0;entryDy=0;exitX=0.5;exitY=0;exitDx=0;exitDy=0;exitPerimeter=0;" edge="1" parent="1" source="GA-MrlqgVM2owLJVnuF0-99" target="GA-MrlqgVM2owLJVnuF0-47">
          <mxGeometry width="50" height="50" relative="1" as="geometry">
            <mxPoint x="205" y="700" as="sourcePoint" />
            <mxPoint x="640" y="640" as="targetPoint" />
            <Array as="points">
              <mxPoint x="1030" y="680" />
            </Array>
          </mxGeometry>
        </mxCell>
        <mxCell id="GA-MrlqgVM2owLJVnuF0-122" value="" style="endArrow=none;html=1;rounded=0;entryX=1;entryY=0.5;entryDx=0;entryDy=0;exitX=0.5;exitY=1;exitDx=0;exitDy=0;exitPerimeter=0;" edge="1" parent="1" source="GA-MrlqgVM2owLJVnuF0-89" target="GA-MrlqgVM2owLJVnuF0-77">
          <mxGeometry width="50" height="50" relative="1" as="geometry">
            <mxPoint x="570" y="620" as="sourcePoint" />
            <mxPoint x="620" y="570" as="targetPoint" />
            <Array as="points">
              <mxPoint x="235" y="990" />
              <mxPoint x="1600" y="990" />
              <mxPoint x="1600" y="280" />
            </Array>
          </mxGeometry>
        </mxCell>
        <mxCell id="GA-MrlqgVM2owLJVnuF0-123" value="" style="endArrow=none;html=1;rounded=0;entryX=1;entryY=0.5;entryDx=0;entryDy=0;exitX=0.5;exitY=1;exitDx=0;exitDy=0;exitPerimeter=0;" edge="1" parent="1" source="GA-MrlqgVM2owLJVnuF0-91" target="GA-MrlqgVM2owLJVnuF0-77">
          <mxGeometry width="50" height="50" relative="1" as="geometry">
            <mxPoint x="220" y="860" as="sourcePoint" />
            <mxPoint x="1400" y="400" as="targetPoint" />
            <Array as="points">
              <mxPoint x="408" y="980" />
              <mxPoint x="1560" y="980" />
              <mxPoint x="1560" y="320" />
            </Array>
          </mxGeometry>
        </mxCell>
        <mxCell id="GA-MrlqgVM2owLJVnuF0-124" value="" style="endArrow=none;html=1;rounded=0;entryX=1;entryY=0.5;entryDx=0;entryDy=0;exitX=0.5;exitY=1;exitDx=0;exitDy=0;exitPerimeter=0;" edge="1" parent="1" source="GA-MrlqgVM2owLJVnuF0-93" target="GA-MrlqgVM2owLJVnuF0-77">
          <mxGeometry width="50" height="50" relative="1" as="geometry">
            <mxPoint x="230" y="870" as="sourcePoint" />
            <mxPoint x="1410" y="410" as="targetPoint" />
            <Array as="points">
              <mxPoint x="580" y="970" />
              <mxPoint x="1520" y="970" />
              <mxPoint x="1520" y="360" />
            </Array>
          </mxGeometry>
        </mxCell>
        <mxCell id="GA-MrlqgVM2owLJVnuF0-125" value="" style="endArrow=none;html=1;rounded=0;entryX=1;entryY=0.5;entryDx=0;entryDy=0;exitX=0.5;exitY=1;exitDx=0;exitDy=0;exitPerimeter=0;" edge="1" parent="1" source="GA-MrlqgVM2owLJVnuF0-95" target="GA-MrlqgVM2owLJVnuF0-77">
          <mxGeometry width="50" height="50" relative="1" as="geometry">
            <mxPoint x="565" y="860" as="sourcePoint" />
            <mxPoint x="1400" y="400" as="targetPoint" />
            <Array as="points">
              <mxPoint x="755" y="960" />
              <mxPoint x="1480" y="960" />
              <mxPoint x="1480" y="400" />
            </Array>
          </mxGeometry>
        </mxCell>
        <mxCell id="GA-MrlqgVM2owLJVnuF0-126" value="" style="endArrow=none;html=1;rounded=0;exitX=0.5;exitY=1;exitDx=0;exitDy=0;exitPerimeter=0;entryX=1;entryY=0.5;entryDx=0;entryDy=0;" edge="1" parent="1" source="GA-MrlqgVM2owLJVnuF0-97" target="GA-MrlqgVM2owLJVnuF0-77">
          <mxGeometry width="50" height="50" relative="1" as="geometry">
            <mxPoint x="575" y="870" as="sourcePoint" />
            <mxPoint x="1390" y="390" as="targetPoint" />
            <Array as="points">
              <mxPoint x="925" y="950" />
              <mxPoint x="1440" y="950" />
              <mxPoint x="1440" y="440" />
            </Array>
          </mxGeometry>
        </mxCell>
        <mxCell id="GA-MrlqgVM2owLJVnuF0-127" value="" style="endArrow=none;html=1;rounded=0;entryX=1;entryY=0.5;entryDx=0;entryDy=0;exitX=0.5;exitY=1;exitDx=0;exitDy=0;exitPerimeter=0;" edge="1" parent="1" source="GA-MrlqgVM2owLJVnuF0-99" target="GA-MrlqgVM2owLJVnuF0-77">
          <mxGeometry width="50" height="50" relative="1" as="geometry">
            <mxPoint x="585" y="880" as="sourcePoint" />
            <mxPoint x="1420" y="420" as="targetPoint" />
            <Array as="points">
              <mxPoint x="1095" y="940" />
              <mxPoint x="1400" y="940" />
              <mxPoint x="1400" y="480" />
            </Array>
          </mxGeometry>
        </mxCell>
        <mxCell id="GA-MrlqgVM2owLJVnuF0-128" value="" style="endArrow=none;html=1;rounded=0;entryX=1;entryY=0.5;entryDx=0;entryDy=0;exitX=1;exitY=0.5;exitDx=0;exitDy=0;exitPerimeter=0;" edge="1" parent="1" source="GA-MrlqgVM2owLJVnuF0-101" target="GA-MrlqgVM2owLJVnuF0-77">
          <mxGeometry width="50" height="50" relative="1" as="geometry">
            <mxPoint x="595" y="890" as="sourcePoint" />
            <mxPoint x="1430" y="430" as="targetPoint" />
            <Array as="points">
              <mxPoint x="1360" y="830" />
              <mxPoint x="1360" y="520" />
            </Array>
          </mxGeometry>
        </mxCell>
        <mxCell id="GA-MrlqgVM2owLJVnuF0-130" value="" style="endArrow=none;html=1;rounded=0;entryX=0;entryY=0.5;entryDx=0;entryDy=0;exitX=0;exitY=0.5;exitDx=0;exitDy=0;exitPerimeter=0;" edge="1" parent="1" source="GA-MrlqgVM2owLJVnuF0-49" target="GA-MrlqgVM2owLJVnuF0-75">
          <mxGeometry width="50" height="50" relative="1" as="geometry">
            <mxPoint x="-80" y="560" as="sourcePoint" />
            <mxPoint x="680" y="570" as="targetPoint" />
            <Array as="points">
              <mxPoint x="-40" y="830" />
              <mxPoint x="-40" y="560" />
            </Array>
          </mxGeometry>
        </mxCell>
        <mxCell id="GA-MrlqgVM2owLJVnuF0-131" value="" style="endArrow=none;html=1;rounded=0;exitX=0;exitY=0;exitDx=40;exitDy=80;exitPerimeter=0;entryX=0;entryY=0.5;entryDx=0;entryDy=0;" edge="1" parent="1" source="GA-MrlqgVM2owLJVnuF0-89" target="GA-MrlqgVM2owLJVnuF0-75">
          <mxGeometry width="50" height="50" relative="1" as="geometry">
            <mxPoint x="-30" y="820" as="sourcePoint" />
            <mxPoint x="130" y="380" as="targetPoint" />
            <Array as="points">
              <mxPoint x="195" y="960" />
              <mxPoint x="-80" y="960" />
              <mxPoint x="-80" y="520" />
            </Array>
          </mxGeometry>
        </mxCell>
        <mxCell id="GA-MrlqgVM2owLJVnuF0-133" value="" style="endArrow=none;html=1;rounded=0;exitX=0;exitY=0;exitDx=40;exitDy=80;exitPerimeter=0;entryX=0;entryY=0.5;entryDx=0;entryDy=0;" edge="1" parent="1" source="GA-MrlqgVM2owLJVnuF0-91" target="GA-MrlqgVM2owLJVnuF0-75">
          <mxGeometry width="50" height="50" relative="1" as="geometry">
            <mxPoint x="245" y="880" as="sourcePoint" />
            <mxPoint x="90" y="370" as="targetPoint" />
            <Array as="points">
              <mxPoint x="368" y="1040" />
              <mxPoint x="-120" y="1040" />
              <mxPoint x="-120" y="480" />
            </Array>
          </mxGeometry>
        </mxCell>
        <mxCell id="GA-MrlqgVM2owLJVnuF0-134" value="" style="endArrow=none;html=1;rounded=0;exitX=0;exitY=0;exitDx=40;exitDy=80;exitPerimeter=0;entryX=0;entryY=0.5;entryDx=0;entryDy=0;" edge="1" parent="1" source="GA-MrlqgVM2owLJVnuF0-93" target="GA-MrlqgVM2owLJVnuF0-75">
          <mxGeometry width="50" height="50" relative="1" as="geometry">
            <mxPoint x="418" y="880" as="sourcePoint" />
            <mxPoint x="100" y="360" as="targetPoint" />
            <Array as="points">
              <mxPoint x="540" y="1080" />
              <mxPoint x="-160" y="1080" />
              <mxPoint x="-160" y="440" />
            </Array>
          </mxGeometry>
        </mxCell>
        <mxCell id="GA-MrlqgVM2owLJVnuF0-135" value="" style="endArrow=none;html=1;rounded=0;entryX=0;entryY=0.5;entryDx=0;entryDy=0;exitX=0;exitY=0;exitDx=40;exitDy=80;exitPerimeter=0;" edge="1" parent="1" source="GA-MrlqgVM2owLJVnuF0-95" target="GA-MrlqgVM2owLJVnuF0-75">
          <mxGeometry width="50" height="50" relative="1" as="geometry">
            <mxPoint x="-5" y="840" as="sourcePoint" />
            <mxPoint x="150" y="395" as="targetPoint" />
            <Array as="points">
              <mxPoint x="715" y="1120" />
              <mxPoint x="-200" y="1120" />
              <mxPoint x="-200" y="400" />
            </Array>
          </mxGeometry>
        </mxCell>
        <mxCell id="GA-MrlqgVM2owLJVnuF0-136" value="" style="endArrow=none;html=1;rounded=0;exitX=0;exitY=0;exitDx=40;exitDy=80;exitPerimeter=0;entryX=0;entryY=0.5;entryDx=0;entryDy=0;" edge="1" parent="1" source="GA-MrlqgVM2owLJVnuF0-97" target="GA-MrlqgVM2owLJVnuF0-75">
          <mxGeometry width="50" height="50" relative="1" as="geometry">
            <mxPoint x="-5" y="840" as="sourcePoint" />
            <mxPoint x="120" y="330" as="targetPoint" />
            <Array as="points">
              <mxPoint x="885" y="1160" />
              <mxPoint x="-240" y="1160" />
              <mxPoint x="-240" y="360" />
            </Array>
          </mxGeometry>
        </mxCell>
        <mxCell id="GA-MrlqgVM2owLJVnuF0-137" value="" style="endArrow=none;html=1;rounded=0;exitX=0;exitY=0;exitDx=40;exitDy=80;exitPerimeter=0;entryX=0;entryY=0.5;entryDx=0;entryDy=0;" edge="1" parent="1" source="GA-MrlqgVM2owLJVnuF0-99" target="GA-MrlqgVM2owLJVnuF0-75">
          <mxGeometry width="50" height="50" relative="1" as="geometry">
            <mxPoint x="895" y="880" as="sourcePoint" />
            <mxPoint x="120" y="340" as="targetPoint" />
            <Array as="points">
              <mxPoint x="1055" y="1200" />
              <mxPoint x="-280" y="1200" />
              <mxPoint x="-280" y="320" />
            </Array>
          </mxGeometry>
        </mxCell>
        <mxCell id="GA-MrlqgVM2owLJVnuF0-140" value="&lt;font style=&quot;font-size: 20px;&quot;&gt;1&lt;/font&gt;" style="text;html=1;align=center;verticalAlign=middle;resizable=0;points=[];autosize=1;strokeColor=none;fillColor=none;" vertex="1" parent="1">
          <mxGeometry x="365" y="340" width="30" height="40" as="geometry" />
        </mxCell>
        <mxCell id="GA-MrlqgVM2owLJVnuF0-141" value="&lt;font style=&quot;font-size: 20px;&quot;&gt;N&lt;/font&gt;" style="text;html=1;align=center;verticalAlign=middle;resizable=0;points=[];autosize=1;strokeColor=none;fillColor=none;" vertex="1" parent="1">
          <mxGeometry x="-10" y="755" width="40" height="40" as="geometry" />
        </mxCell>
        <mxCell id="GA-MrlqgVM2owLJVnuF0-142" value="&lt;font style=&quot;font-size: 20px;&quot;&gt;1&lt;/font&gt;" style="text;html=1;align=center;verticalAlign=middle;resizable=0;points=[];autosize=1;strokeColor=none;fillColor=none;" vertex="1" parent="1">
          <mxGeometry x="620" y="430" width="30" height="40" as="geometry" />
        </mxCell>
        <mxCell id="GA-MrlqgVM2owLJVnuF0-143" value="&lt;font style=&quot;font-size: 20px;&quot;&gt;1&lt;/font&gt;" style="text;html=1;align=center;verticalAlign=middle;resizable=0;points=[];autosize=1;strokeColor=none;fillColor=none;" vertex="1" parent="1">
          <mxGeometry x="965" y="340" width="30" height="40" as="geometry" />
        </mxCell>
        <mxCell id="GA-MrlqgVM2owLJVnuF0-144" value="&lt;font style=&quot;font-size: 20px;&quot;&gt;N&lt;/font&gt;" style="text;html=1;align=center;verticalAlign=middle;resizable=0;points=[];autosize=1;strokeColor=none;fillColor=none;" vertex="1" parent="1">
          <mxGeometry x="90" y="750" width="40" height="40" as="geometry" />
        </mxCell>
        <mxCell id="GA-MrlqgVM2owLJVnuF0-146" value="&lt;font style=&quot;font-size: 20px;&quot;&gt;N&lt;/font&gt;" style="text;html=1;align=center;verticalAlign=middle;resizable=0;points=[];autosize=1;strokeColor=none;fillColor=none;" vertex="1" parent="1">
          <mxGeometry x="200" y="750" width="40" height="40" as="geometry" />
        </mxCell>
        <mxCell id="GA-MrlqgVM2owLJVnuF0-147" value="&lt;font style=&quot;font-size: 20px;&quot;&gt;N&lt;/font&gt;" style="text;html=1;align=center;verticalAlign=middle;resizable=0;points=[];autosize=1;strokeColor=none;fillColor=none;" vertex="1" parent="1">
          <mxGeometry x="160" y="870" width="40" height="40" as="geometry" />
        </mxCell>
        <mxCell id="GA-MrlqgVM2owLJVnuF0-148" value="&lt;font style=&quot;font-size: 20px;&quot;&gt;N&lt;/font&gt;" style="text;html=1;align=center;verticalAlign=middle;resizable=0;points=[];autosize=1;strokeColor=none;fillColor=none;" vertex="1" parent="1">
          <mxGeometry x="235" y="870" width="40" height="40" as="geometry" />
        </mxCell>
        <mxCell id="GA-MrlqgVM2owLJVnuF0-149" value="&lt;font style=&quot;font-size: 20px;&quot;&gt;N&lt;/font&gt;" style="text;html=1;align=center;verticalAlign=middle;resizable=0;points=[];autosize=1;strokeColor=none;fillColor=none;" vertex="1" parent="1">
          <mxGeometry x="377.5" y="750" width="40" height="40" as="geometry" />
        </mxCell>
        <mxCell id="GA-MrlqgVM2owLJVnuF0-150" value="&lt;font style=&quot;font-size: 20px;&quot;&gt;N&lt;/font&gt;" style="text;html=1;align=center;verticalAlign=middle;resizable=0;points=[];autosize=1;strokeColor=none;fillColor=none;" vertex="1" parent="1">
          <mxGeometry x="327.5" y="870" width="40" height="40" as="geometry" />
        </mxCell>
        <mxCell id="GA-MrlqgVM2owLJVnuF0-151" value="&lt;font style=&quot;font-size: 20px;&quot;&gt;N&lt;/font&gt;" style="text;html=1;align=center;verticalAlign=middle;resizable=0;points=[];autosize=1;strokeColor=none;fillColor=none;" vertex="1" parent="1">
          <mxGeometry x="410" y="870" width="40" height="40" as="geometry" />
        </mxCell>
        <mxCell id="GA-MrlqgVM2owLJVnuF0-153" value="&lt;font style=&quot;font-size: 20px;&quot;&gt;N&lt;/font&gt;" style="text;html=1;align=center;verticalAlign=middle;resizable=0;points=[];autosize=1;strokeColor=none;fillColor=none;" vertex="1" parent="1">
          <mxGeometry x="500" y="870" width="40" height="40" as="geometry" />
        </mxCell>
        <mxCell id="GA-MrlqgVM2owLJVnuF0-154" value="&lt;font style=&quot;font-size: 20px;&quot;&gt;N&lt;/font&gt;" style="text;html=1;align=center;verticalAlign=middle;resizable=0;points=[];autosize=1;strokeColor=none;fillColor=none;" vertex="1" parent="1">
          <mxGeometry x="590" y="870" width="40" height="40" as="geometry" />
        </mxCell>
        <mxCell id="GA-MrlqgVM2owLJVnuF0-155" value="&lt;font style=&quot;font-size: 20px;&quot;&gt;N&lt;/font&gt;" style="text;html=1;align=center;verticalAlign=middle;resizable=0;points=[];autosize=1;strokeColor=none;fillColor=none;" vertex="1" parent="1">
          <mxGeometry x="542.5" y="750" width="40" height="40" as="geometry" />
        </mxCell>
        <mxCell id="GA-MrlqgVM2owLJVnuF0-156" value="&lt;font style=&quot;font-size: 20px;&quot;&gt;N&lt;/font&gt;" style="text;html=1;align=center;verticalAlign=middle;resizable=0;points=[];autosize=1;strokeColor=none;fillColor=none;" vertex="1" parent="1">
          <mxGeometry x="675" y="870" width="40" height="40" as="geometry" />
        </mxCell>
        <mxCell id="GA-MrlqgVM2owLJVnuF0-157" value="&lt;font style=&quot;font-size: 20px;&quot;&gt;N&lt;/font&gt;" style="text;html=1;align=center;verticalAlign=middle;resizable=0;points=[];autosize=1;strokeColor=none;fillColor=none;" vertex="1" parent="1">
          <mxGeometry x="760" y="870" width="40" height="40" as="geometry" />
        </mxCell>
        <mxCell id="GA-MrlqgVM2owLJVnuF0-158" value="&lt;font style=&quot;font-size: 20px;&quot;&gt;N&lt;/font&gt;" style="text;html=1;align=center;verticalAlign=middle;resizable=0;points=[];autosize=1;strokeColor=none;fillColor=none;" vertex="1" parent="1">
          <mxGeometry x="700" y="750" width="40" height="40" as="geometry" />
        </mxCell>
        <mxCell id="GA-MrlqgVM2owLJVnuF0-159" value="&lt;font style=&quot;font-size: 20px;&quot;&gt;N&lt;/font&gt;" style="text;html=1;align=center;verticalAlign=middle;resizable=0;points=[];autosize=1;strokeColor=none;fillColor=none;" vertex="1" parent="1">
          <mxGeometry x="845" y="870" width="40" height="40" as="geometry" />
        </mxCell>
        <mxCell id="GA-MrlqgVM2owLJVnuF0-160" value="&lt;font style=&quot;font-size: 20px;&quot;&gt;N&lt;/font&gt;" style="text;html=1;align=center;verticalAlign=middle;resizable=0;points=[];autosize=1;strokeColor=none;fillColor=none;" vertex="1" parent="1">
          <mxGeometry x="930" y="870" width="40" height="40" as="geometry" />
        </mxCell>
        <mxCell id="GA-MrlqgVM2owLJVnuF0-161" value="&lt;font style=&quot;font-size: 20px;&quot;&gt;N&lt;/font&gt;" style="text;html=1;align=center;verticalAlign=middle;resizable=0;points=[];autosize=1;strokeColor=none;fillColor=none;" vertex="1" parent="1">
          <mxGeometry x="860" y="750" width="40" height="40" as="geometry" />
        </mxCell>
        <mxCell id="GA-MrlqgVM2owLJVnuF0-162" value="&lt;font style=&quot;font-size: 20px;&quot;&gt;N&lt;/font&gt;" style="text;html=1;align=center;verticalAlign=middle;resizable=0;points=[];autosize=1;strokeColor=none;fillColor=none;" vertex="1" parent="1">
          <mxGeometry x="1020" y="750" width="40" height="40" as="geometry" />
        </mxCell>
        <mxCell id="GA-MrlqgVM2owLJVnuF0-163" value="&lt;font style=&quot;font-size: 20px;&quot;&gt;N&lt;/font&gt;" style="text;html=1;align=center;verticalAlign=middle;resizable=0;points=[];autosize=1;strokeColor=none;fillColor=none;" vertex="1" parent="1">
          <mxGeometry x="1015" y="870" width="40" height="40" as="geometry" />
        </mxCell>
        <mxCell id="GA-MrlqgVM2owLJVnuF0-164" value="&lt;font style=&quot;font-size: 20px;&quot;&gt;N&lt;/font&gt;" style="text;html=1;align=center;verticalAlign=middle;resizable=0;points=[];autosize=1;strokeColor=none;fillColor=none;" vertex="1" parent="1">
          <mxGeometry x="1100" y="870" width="40" height="40" as="geometry" />
        </mxCell>
        <mxCell id="GA-MrlqgVM2owLJVnuF0-166" value="&lt;font style=&quot;font-size: 20px;&quot;&gt;N&lt;/font&gt;" style="text;html=1;align=center;verticalAlign=middle;resizable=0;points=[];autosize=1;strokeColor=none;fillColor=none;" vertex="1" parent="1">
          <mxGeometry x="1305" y="740" width="40" height="40" as="geometry" />
        </mxCell>
        <mxCell id="GA-MrlqgVM2owLJVnuF0-176" value="&lt;font style=&quot;font-size: 20px;&quot;&gt;1&lt;/font&gt;" style="text;html=1;align=center;verticalAlign=middle;resizable=0;points=[];autosize=1;strokeColor=none;fillColor=none;" vertex="1" parent="1">
          <mxGeometry x="697.5" y="190" width="30" height="40" as="geometry" />
        </mxCell>
        <mxCell id="GA-MrlqgVM2owLJVnuF0-178" value="&lt;font style=&quot;font-size: 20px;&quot;&gt;N&lt;/font&gt;" style="text;html=1;align=center;verticalAlign=middle;resizable=0;points=[];autosize=1;strokeColor=none;fillColor=none;" vertex="1" parent="1">
          <mxGeometry x="835" y="310" width="40" height="40" as="geometry" />
        </mxCell>
        <mxCell id="GA-MrlqgVM2owLJVnuF0-179" value="&lt;font style=&quot;font-size: 20px;&quot;&gt;1&lt;/font&gt;" style="text;html=1;align=center;verticalAlign=middle;resizable=0;points=[];autosize=1;strokeColor=none;fillColor=none;" vertex="1" parent="1">
          <mxGeometry x="665" y="210" width="30" height="40" as="geometry" />
        </mxCell>
        <mxCell id="GA-MrlqgVM2owLJVnuF0-180" value="&lt;font style=&quot;font-size: 20px;&quot;&gt;N&lt;/font&gt;" style="text;html=1;align=center;verticalAlign=middle;resizable=0;points=[];autosize=1;strokeColor=none;fillColor=none;" vertex="1" parent="1">
          <mxGeometry x="657.5" y="310" width="40" height="40" as="geometry" />
        </mxCell>
        <mxCell id="GA-MrlqgVM2owLJVnuF0-181" value="&lt;font style=&quot;font-size: 20px;&quot;&gt;1&lt;/font&gt;" style="text;html=1;align=center;verticalAlign=middle;resizable=0;points=[];autosize=1;strokeColor=none;fillColor=none;" vertex="1" parent="1">
          <mxGeometry x="595" y="190" width="30" height="40" as="geometry" />
        </mxCell>
        <mxCell id="GA-MrlqgVM2owLJVnuF0-182" value="&lt;font style=&quot;font-size: 20px;&quot;&gt;N&lt;/font&gt;" style="text;html=1;align=center;verticalAlign=middle;resizable=0;points=[];autosize=1;strokeColor=none;fillColor=none;" vertex="1" parent="1">
          <mxGeometry x="462.5" y="310" width="40" height="40" as="geometry" />
        </mxCell>
        <mxCell id="GA-MrlqgVM2owLJVnuF0-183" value="" style="verticalLabelPosition=bottom;verticalAlign=top;html=1;shape=mxgraph.basic.frame;dx=10;whiteSpace=wrap;" vertex="1" parent="1">
          <mxGeometry x="380" width="120" height="60" as="geometry" />
        </mxCell>
        <mxCell id="GA-MrlqgVM2owLJVnuF0-184" value="&lt;span style=&quot;color: rgb(0, 0, 0); font-family: Helvetica; font-style: normal; font-variant-ligatures: normal; font-variant-caps: normal; font-weight: 400; letter-spacing: normal; orphans: 2; text-align: center; text-indent: 0px; text-transform: none; widows: 2; word-spacing: 0px; -webkit-text-stroke-width: 0px; white-space: normal; background-color: rgb(251, 251, 251); text-decoration-thickness: initial; text-decoration-style: initial; text-decoration-color: initial; float: none; display: inline !important;&quot;&gt;&lt;font style=&quot;font-size: 20px;&quot;&gt;Engine&lt;/font&gt;&lt;/span&gt;" style="text;whiteSpace=wrap;html=1;" vertex="1" parent="1">
          <mxGeometry x="401.25" y="10" width="77.5" height="40" as="geometry" />
        </mxCell>
        <mxCell id="GA-MrlqgVM2owLJVnuF0-185" value="&lt;font style=&quot;font-size: 20px;&quot;&gt;CCs&lt;/font&gt;" style="ellipse;whiteSpace=wrap;html=1;" vertex="1" parent="1">
          <mxGeometry x="115" y="10" width="100" height="70" as="geometry" />
        </mxCell>
        <mxCell id="GA-MrlqgVM2owLJVnuF0-186" value="&lt;span style=&quot;font-size: 20px;&quot;&gt;Horse Power&lt;/span&gt;" style="ellipse;whiteSpace=wrap;html=1;" vertex="1" parent="1">
          <mxGeometry x="117.5" y="-100" width="100" height="70" as="geometry" />
        </mxCell>
        <mxCell id="GA-MrlqgVM2owLJVnuF0-187" value="&lt;span style=&quot;font-size: 20px;&quot;&gt;Engine&lt;/span&gt;&lt;div&gt;&lt;span style=&quot;font-size: 20px;&quot;&gt;Torque&lt;/span&gt;&lt;/div&gt;" style="ellipse;whiteSpace=wrap;html=1;" vertex="1" parent="1">
          <mxGeometry x="177.5" y="-200" width="95" height="70" as="geometry" />
        </mxCell>
        <mxCell id="GA-MrlqgVM2owLJVnuF0-188" value="&lt;span style=&quot;font-size: 20px;&quot;&gt;Cilinders/&lt;/span&gt;&lt;div&gt;&lt;span style=&quot;font-size: 20px;&quot;&gt;Valves&lt;/span&gt;&lt;/div&gt;" style="ellipse;whiteSpace=wrap;html=1;" vertex="1" parent="1">
          <mxGeometry x="305" y="-240" width="95" height="70" as="geometry" />
        </mxCell>
        <mxCell id="GA-MrlqgVM2owLJVnuF0-189" value="" style="endArrow=none;html=1;rounded=0;entryX=0;entryY=0;entryDx=0;entryDy=0;entryPerimeter=0;exitX=1;exitY=1;exitDx=0;exitDy=0;" edge="1" parent="1" source="GA-MrlqgVM2owLJVnuF0-187" target="GA-MrlqgVM2owLJVnuF0-183">
          <mxGeometry width="50" height="50" relative="1" as="geometry">
            <mxPoint x="557.5" y="40" as="sourcePoint" />
            <mxPoint x="607.5" y="-10" as="targetPoint" />
          </mxGeometry>
        </mxCell>
        <mxCell id="GA-MrlqgVM2owLJVnuF0-190" value="" style="endArrow=none;html=1;rounded=0;entryX=0;entryY=0;entryDx=0;entryDy=0;entryPerimeter=0;exitX=1;exitY=0.5;exitDx=0;exitDy=0;" edge="1" parent="1" source="GA-MrlqgVM2owLJVnuF0-186" target="GA-MrlqgVM2owLJVnuF0-183">
          <mxGeometry width="50" height="50" relative="1" as="geometry">
            <mxPoint x="308.5" y="-80" as="sourcePoint" />
            <mxPoint x="390.5" y="10" as="targetPoint" />
          </mxGeometry>
        </mxCell>
        <mxCell id="GA-MrlqgVM2owLJVnuF0-191" value="" style="endArrow=none;html=1;rounded=0;entryX=0;entryY=0;entryDx=0;entryDy=0;entryPerimeter=0;exitX=1;exitY=0.5;exitDx=0;exitDy=0;" edge="1" parent="1" source="GA-MrlqgVM2owLJVnuF0-185" target="GA-MrlqgVM2owLJVnuF0-183">
          <mxGeometry width="50" height="50" relative="1" as="geometry">
            <mxPoint x="217.5000000000009" y="45" as="sourcePoint" />
            <mxPoint x="400.5" y="20" as="targetPoint" />
          </mxGeometry>
        </mxCell>
        <mxCell id="GA-MrlqgVM2owLJVnuF0-192" value="" style="endArrow=none;html=1;rounded=0;entryX=0;entryY=0;entryDx=0;entryDy=0;entryPerimeter=0;exitX=0.5;exitY=1;exitDx=0;exitDy=0;" edge="1" parent="1" source="GA-MrlqgVM2owLJVnuF0-188" target="GA-MrlqgVM2owLJVnuF0-183">
          <mxGeometry width="50" height="50" relative="1" as="geometry">
            <mxPoint x="328.5" y="-60" as="sourcePoint" />
            <mxPoint x="410.5" y="30" as="targetPoint" />
          </mxGeometry>
        </mxCell>
        <mxCell id="GA-MrlqgVM2owLJVnuF0-193" value="" style="verticalLabelPosition=bottom;verticalAlign=top;html=1;shape=mxgraph.basic.frame;dx=10;whiteSpace=wrap;" vertex="1" parent="1">
          <mxGeometry x="540" y="-80" width="100" height="60" as="geometry" />
        </mxCell>
        <mxCell id="GA-MrlqgVM2owLJVnuF0-194" value="&lt;font style=&quot;font-size: 20px;&quot;&gt;Interior&lt;/font&gt;" style="text;html=1;align=center;verticalAlign=middle;resizable=0;points=[];autosize=1;strokeColor=none;fillColor=none;" vertex="1" parent="1">
          <mxGeometry x="545" y="-70" width="90" height="40" as="geometry" />
        </mxCell>
        <mxCell id="GA-MrlqgVM2owLJVnuF0-195" value="&lt;font style=&quot;font-size: 20px;&quot;&gt;Color&lt;/font&gt;" style="ellipse;whiteSpace=wrap;html=1;" vertex="1" parent="1">
          <mxGeometry x="605" y="-250" width="120" height="80" as="geometry" />
        </mxCell>
        <mxCell id="GA-MrlqgVM2owLJVnuF0-197" value="" style="verticalLabelPosition=bottom;verticalAlign=top;html=1;shape=mxgraph.basic.frame;dx=10;whiteSpace=wrap;" vertex="1" parent="1">
          <mxGeometry x="695" y="-80" width="100" height="60" as="geometry" />
        </mxCell>
        <mxCell id="GA-MrlqgVM2owLJVnuF0-198" value="&lt;font style=&quot;font-size: 20px;&quot;&gt;Extirior&lt;/font&gt;" style="text;html=1;align=center;verticalAlign=middle;resizable=0;points=[];autosize=1;strokeColor=none;fillColor=none;" vertex="1" parent="1">
          <mxGeometry x="700" y="-70" width="90" height="40" as="geometry" />
        </mxCell>
        <mxCell id="GA-MrlqgVM2owLJVnuF0-199" value="" style="endArrow=none;html=1;rounded=0;entryX=0.5;entryY=1;entryDx=0;entryDy=0;exitX=0.5;exitY=0;exitDx=0;exitDy=0;exitPerimeter=0;" edge="1" parent="1" source="GA-MrlqgVM2owLJVnuF0-193" target="GA-MrlqgVM2owLJVnuF0-195">
          <mxGeometry width="50" height="50" relative="1" as="geometry">
            <mxPoint x="560" y="-80" as="sourcePoint" />
            <mxPoint x="610" y="-130" as="targetPoint" />
          </mxGeometry>
        </mxCell>
        <mxCell id="GA-MrlqgVM2owLJVnuF0-203" value="" style="endArrow=none;html=1;rounded=0;entryX=0.5;entryY=0;entryDx=0;entryDy=0;entryPerimeter=0;exitX=0.5;exitY=1;exitDx=0;exitDy=0;" edge="1" parent="1" source="GA-MrlqgVM2owLJVnuF0-195" target="GA-MrlqgVM2owLJVnuF0-197">
          <mxGeometry width="50" height="50" relative="1" as="geometry">
            <mxPoint x="560" y="-80" as="sourcePoint" />
            <mxPoint x="610" y="-130" as="targetPoint" />
          </mxGeometry>
        </mxCell>
        <mxCell id="GA-MrlqgVM2owLJVnuF0-204" value="&lt;font style=&quot;font-size: 20px;&quot;&gt;1&lt;/font&gt;" style="text;html=1;align=center;verticalAlign=middle;resizable=0;points=[];autosize=1;strokeColor=none;fillColor=none;" vertex="1" parent="1">
          <mxGeometry x="582.5" y="100" width="30" height="40" as="geometry" />
        </mxCell>
        <mxCell id="GA-MrlqgVM2owLJVnuF0-205" value="&lt;font style=&quot;font-size: 20px;&quot;&gt;N&lt;/font&gt;" style="text;html=1;align=center;verticalAlign=middle;resizable=0;points=[];autosize=1;strokeColor=none;fillColor=none;" vertex="1" parent="1">
          <mxGeometry x="467.5" y="60" width="40" height="40" as="geometry" />
        </mxCell>
        <mxCell id="GA-MrlqgVM2owLJVnuF0-206" value="&lt;font style=&quot;font-size: 20px;&quot;&gt;1&lt;/font&gt;" style="text;html=1;align=center;verticalAlign=middle;resizable=0;points=[];autosize=1;strokeColor=none;fillColor=none;" vertex="1" parent="1">
          <mxGeometry x="617.5" y="70" width="30" height="40" as="geometry" />
        </mxCell>
        <mxCell id="GA-MrlqgVM2owLJVnuF0-207" value="&lt;font style=&quot;font-size: 20px;&quot;&gt;1&lt;/font&gt;" style="text;html=1;align=center;verticalAlign=middle;resizable=0;points=[];autosize=1;strokeColor=none;fillColor=none;" vertex="1" parent="1">
          <mxGeometry x="662.5" y="60" width="30" height="40" as="geometry" />
        </mxCell>
        <mxCell id="GA-MrlqgVM2owLJVnuF0-209" value="&lt;font style=&quot;font-size: 20px;&quot;&gt;N&lt;/font&gt;" style="text;html=1;align=center;verticalAlign=middle;resizable=0;points=[];autosize=1;strokeColor=none;fillColor=none;" vertex="1" parent="1">
          <mxGeometry x="560" y="-20" width="40" height="40" as="geometry" />
        </mxCell>
        <mxCell id="GA-MrlqgVM2owLJVnuF0-210" value="&lt;font style=&quot;font-size: 20px;&quot;&gt;N&lt;/font&gt;" style="text;html=1;align=center;verticalAlign=middle;resizable=0;points=[];autosize=1;strokeColor=none;fillColor=none;" vertex="1" parent="1">
          <mxGeometry x="692.5" y="-20" width="40" height="40" as="geometry" />
        </mxCell>
        <mxCell id="GA-MrlqgVM2owLJVnuF0-213" value="" style="endArrow=none;html=1;rounded=0;entryX=1;entryY=0.5;entryDx=0;entryDy=0;exitX=0;exitY=0.5;exitDx=0;exitDy=0;" edge="1" parent="1" source="Yd8EfODOnMejqtZCiiyT-5" target="Yd8EfODOnMejqtZCiiyT-1">
          <mxGeometry width="50" height="50" relative="1" as="geometry">
            <mxPoint x="900" y="200" as="sourcePoint" />
            <mxPoint x="950" y="150" as="targetPoint" />
          </mxGeometry>
        </mxCell>
        <mxCell id="GA-MrlqgVM2owLJVnuF0-215" value="&lt;font style=&quot;font-size: 20px;&quot;&gt;1&lt;/font&gt;" style="text;html=1;align=center;verticalAlign=middle;resizable=0;points=[];autosize=1;strokeColor=none;fillColor=none;" vertex="1" parent="1">
          <mxGeometry x="1035" y="123" width="30" height="40" as="geometry" />
        </mxCell>
        <mxCell id="GA-MrlqgVM2owLJVnuF0-216" value="&lt;font style=&quot;font-size: 20px;&quot;&gt;N&lt;/font&gt;" style="text;html=1;align=center;verticalAlign=middle;resizable=0;points=[];autosize=1;strokeColor=none;fillColor=none;" vertex="1" parent="1">
          <mxGeometry x="725" y="123" width="40" height="40" as="geometry" />
        </mxCell>
        <mxCell id="GA-MrlqgVM2owLJVnuF0-217" value="&lt;font style=&quot;font-size: 20px;&quot;&gt;First&lt;/font&gt;&lt;div style=&quot;font-size: 20px;&quot;&gt;Name&lt;/div&gt;" style="ellipse;whiteSpace=wrap;html=1;" vertex="1" parent="1">
          <mxGeometry x="840" y="20" width="120" height="80" as="geometry" />
        </mxCell>
        <mxCell id="GA-MrlqgVM2owLJVnuF0-218" value="&lt;font style=&quot;font-size: 20px;&quot;&gt;1&lt;/font&gt;" style="text;html=1;align=center;verticalAlign=middle;resizable=0;points=[];autosize=1;strokeColor=none;fillColor=none;" vertex="1" parent="1">
          <mxGeometry x="685" y="280" width="30" height="40" as="geometry" />
        </mxCell>
        <mxCell id="GA-MrlqgVM2owLJVnuF0-219" value="&lt;span style=&quot;font-size: 20px;&quot;&gt;Last&lt;/span&gt;&lt;br&gt;&lt;div style=&quot;font-size: 20px;&quot;&gt;Name&lt;/div&gt;" style="ellipse;whiteSpace=wrap;html=1;" vertex="1" parent="1">
          <mxGeometry x="960" y="-80" width="120" height="80" as="geometry" />
        </mxCell>
        <mxCell id="GA-MrlqgVM2owLJVnuF0-220" value="&lt;span style=&quot;font-size: 20px;&quot;&gt;Email&lt;/span&gt;" style="ellipse;whiteSpace=wrap;html=1;" vertex="1" parent="1">
          <mxGeometry x="1085" y="-170" width="120" height="80" as="geometry" />
        </mxCell>
        <mxCell id="GA-MrlqgVM2owLJVnuF0-221" value="&lt;span style=&quot;font-size: 20px;&quot;&gt;Password&lt;/span&gt;" style="ellipse;whiteSpace=wrap;html=1;" vertex="1" parent="1">
          <mxGeometry x="1225" y="-80" width="120" height="80" as="geometry" />
        </mxCell>
        <mxCell id="GA-MrlqgVM2owLJVnuF0-222" value="" style="endArrow=none;html=1;rounded=0;entryX=0;entryY=1;entryDx=0;entryDy=0;exitX=0.5;exitY=0;exitDx=0;exitDy=0;" edge="1" parent="1" source="Yd8EfODOnMejqtZCiiyT-5" target="GA-MrlqgVM2owLJVnuF0-221">
          <mxGeometry width="50" height="50" relative="1" as="geometry">
            <mxPoint x="1130" y="160" as="sourcePoint" />
            <mxPoint x="1180" y="110" as="targetPoint" />
          </mxGeometry>
        </mxCell>
        <mxCell id="GA-MrlqgVM2owLJVnuF0-223" value="" style="endArrow=none;html=1;rounded=0;entryX=0.5;entryY=1;entryDx=0;entryDy=0;exitX=0.5;exitY=0;exitDx=0;exitDy=0;" edge="1" parent="1" source="Yd8EfODOnMejqtZCiiyT-5" target="GA-MrlqgVM2owLJVnuF0-220">
          <mxGeometry width="50" height="50" relative="1" as="geometry">
            <mxPoint x="1155" y="145" as="sourcePoint" />
            <mxPoint x="1308" y="58" as="targetPoint" />
          </mxGeometry>
        </mxCell>
        <mxCell id="GA-MrlqgVM2owLJVnuF0-224" value="" style="endArrow=none;html=1;rounded=0;entryX=0.5;entryY=1;entryDx=0;entryDy=0;exitX=0.5;exitY=0;exitDx=0;exitDy=0;" edge="1" parent="1" source="Yd8EfODOnMejqtZCiiyT-5" target="GA-MrlqgVM2owLJVnuF0-219">
          <mxGeometry width="50" height="50" relative="1" as="geometry">
            <mxPoint x="1165" y="155" as="sourcePoint" />
            <mxPoint x="1318" y="68" as="targetPoint" />
          </mxGeometry>
        </mxCell>
        <mxCell id="GA-MrlqgVM2owLJVnuF0-225" value="" style="endArrow=none;html=1;rounded=0;entryX=0.5;entryY=0;entryDx=0;entryDy=0;exitX=1;exitY=1;exitDx=0;exitDy=0;" edge="1" parent="1" source="GA-MrlqgVM2owLJVnuF0-217" target="Yd8EfODOnMejqtZCiiyT-5">
          <mxGeometry width="50" height="50" relative="1" as="geometry">
            <mxPoint x="1175" y="165" as="sourcePoint" />
            <mxPoint x="1328" y="78" as="targetPoint" />
          </mxGeometry>
        </mxCell>
        <mxCell id="GA-MrlqgVM2owLJVnuF0-230" value="" style="endArrow=none;html=1;rounded=0;entryX=0;entryY=0.5;entryDx=0;entryDy=0;exitX=1;exitY=0.5;exitDx=0;exitDy=0;" edge="1" parent="1" source="Yd8EfODOnMejqtZCiiyT-5" target="GA-MrlqgVM2owLJVnuF0-229">
          <mxGeometry width="50" height="50" relative="1" as="geometry">
            <mxPoint x="1760" y="520" as="sourcePoint" />
            <mxPoint x="1810" y="470" as="targetPoint" />
          </mxGeometry>
        </mxCell>
        <mxCell id="GA-MrlqgVM2owLJVnuF0-231" value="&lt;font style=&quot;font-size: 20px;&quot;&gt;1&lt;/font&gt;" style="text;html=1;align=center;verticalAlign=middle;resizable=0;points=[];autosize=1;strokeColor=none;fillColor=none;" vertex="1" parent="1">
          <mxGeometry x="1205" y="123" width="30" height="40" as="geometry" />
        </mxCell>
        <mxCell id="GA-MrlqgVM2owLJVnuF0-232" value="&lt;font style=&quot;font-size: 20px;&quot;&gt;N&lt;/font&gt;" style="text;html=1;align=center;verticalAlign=middle;resizable=0;points=[];autosize=1;strokeColor=none;fillColor=none;" vertex="1" parent="1">
          <mxGeometry x="1690" y="123" width="40" height="40" as="geometry" />
        </mxCell>
        <mxCell id="GA-MrlqgVM2owLJVnuF0-233" value="" style="endArrow=none;html=1;rounded=0;entryX=0.5;entryY=1;entryDx=0;entryDy=0;exitX=1;exitY=1;exitDx=0;exitDy=0;" edge="1" parent="1" source="Yd8EfODOnMejqtZCiiyT-1" target="GA-MrlqgVM2owLJVnuF0-229">
          <mxGeometry width="50" height="50" relative="1" as="geometry">
            <mxPoint x="780" y="240" as="sourcePoint" />
            <mxPoint x="1720" y="390" as="targetPoint" />
            <Array as="points">
              <mxPoint x="900" y="240" />
              <mxPoint x="1800" y="240" />
            </Array>
          </mxGeometry>
        </mxCell>
        <mxCell id="GA-MrlqgVM2owLJVnuF0-234" value="&lt;font style=&quot;font-size: 20px;&quot;&gt;N&lt;/font&gt;" style="text;html=1;align=center;verticalAlign=middle;resizable=0;points=[];autosize=1;strokeColor=none;fillColor=none;" vertex="1" parent="1">
          <mxGeometry x="750" y="170" width="40" height="40" as="geometry" />
        </mxCell>
        <mxCell id="GA-MrlqgVM2owLJVnuF0-235" value="&lt;font style=&quot;font-size: 20px;&quot;&gt;N&lt;/font&gt;" style="text;html=1;align=center;verticalAlign=middle;resizable=0;points=[];autosize=1;strokeColor=none;fillColor=none;" vertex="1" parent="1">
          <mxGeometry x="1800" y="190" width="40" height="40" as="geometry" />
        </mxCell>
        <mxCell id="GA-MrlqgVM2owLJVnuF0-236" value="&lt;font style=&quot;font-size: 20px;&quot;&gt;User ID&lt;/font&gt;" style="ellipse;whiteSpace=wrap;html=1;" vertex="1" parent="1">
          <mxGeometry x="1570" y="-50" width="120" height="80" as="geometry" />
        </mxCell>
        <mxCell id="GA-MrlqgVM2owLJVnuF0-237" value="&lt;span style=&quot;font-size: 20px;&quot;&gt;User ID&lt;/span&gt;" style="ellipse;whiteSpace=wrap;html=1;" vertex="1" parent="1">
          <mxGeometry x="1305" y="10" width="120" height="80" as="geometry" />
        </mxCell>
        <mxCell id="GA-MrlqgVM2owLJVnuF0-238" value="" style="endArrow=none;html=1;rounded=0;entryX=0;entryY=1;entryDx=0;entryDy=0;exitX=0.5;exitY=0;exitDx=0;exitDy=0;" edge="1" parent="1" source="Yd8EfODOnMejqtZCiiyT-5" target="GA-MrlqgVM2owLJVnuF0-237">
          <mxGeometry width="50" height="50" relative="1" as="geometry">
            <mxPoint x="1670" y="440" as="sourcePoint" />
            <mxPoint x="1720" y="390" as="targetPoint" />
          </mxGeometry>
        </mxCell>
        <mxCell id="GA-MrlqgVM2owLJVnuF0-239" value="" style="endArrow=none;html=1;rounded=0;entryX=0.5;entryY=0;entryDx=0;entryDy=0;exitX=1;exitY=1;exitDx=0;exitDy=0;" edge="1" parent="1" source="GA-MrlqgVM2owLJVnuF0-236" target="GA-MrlqgVM2owLJVnuF0-229">
          <mxGeometry width="50" height="50" relative="1" as="geometry">
            <mxPoint x="1670" y="440" as="sourcePoint" />
            <mxPoint x="1720" y="390" as="targetPoint" />
          </mxGeometry>
        </mxCell>
        <mxCell id="GA-MrlqgVM2owLJVnuF0-240" value="&lt;span style=&quot;font-size: 20px;&quot;&gt;Address&lt;/span&gt;" style="ellipse;whiteSpace=wrap;html=1;" vertex="1" parent="1">
          <mxGeometry x="1740" y="-105" width="120" height="80" as="geometry" />
        </mxCell>
        <mxCell id="GA-MrlqgVM2owLJVnuF0-241" value="" style="endArrow=none;html=1;rounded=0;entryX=0.5;entryY=1;entryDx=0;entryDy=0;exitX=0.5;exitY=0;exitDx=0;exitDy=0;" edge="1" parent="1" source="GA-MrlqgVM2owLJVnuF0-229" target="GA-MrlqgVM2owLJVnuF0-240">
          <mxGeometry width="50" height="50" relative="1" as="geometry">
            <mxPoint x="1670" y="440" as="sourcePoint" />
            <mxPoint x="1720" y="390" as="targetPoint" />
          </mxGeometry>
        </mxCell>
        <mxCell id="GA-MrlqgVM2owLJVnuF0-242" value="&lt;span style=&quot;font-size: 20px;&quot;&gt;Status&lt;/span&gt;" style="ellipse;whiteSpace=wrap;html=1;" vertex="1" parent="1">
          <mxGeometry x="1910" y="-50" width="120" height="80" as="geometry" />
        </mxCell>
        <mxCell id="GA-MrlqgVM2owLJVnuF0-243" value="" style="endArrow=none;html=1;rounded=0;entryX=0;entryY=1;entryDx=0;entryDy=0;exitX=0.5;exitY=0;exitDx=0;exitDy=0;" edge="1" parent="1" source="GA-MrlqgVM2owLJVnuF0-229" target="GA-MrlqgVM2owLJVnuF0-242">
          <mxGeometry width="50" height="50" relative="1" as="geometry">
            <mxPoint x="1670" y="440" as="sourcePoint" />
            <mxPoint x="1720" y="390" as="targetPoint" />
          </mxGeometry>
        </mxCell>
        <mxCell id="oMDSs8RaTiPiCQMWP8zt-1" value="&lt;font style=&quot;font-size: 20px;&quot;&gt;Order&lt;/font&gt;" style="rounded=0;whiteSpace=wrap;html=1;" vertex="1" parent="1">
          <mxGeometry x="1747.5" y="137.5" width="105" height="45" as="geometry" />
        </mxCell>
        <mxCell id="oMDSs8RaTiPiCQMWP8zt-2" value="" style="verticalLabelPosition=bottom;verticalAlign=top;html=1;shape=mxgraph.basic.frame;dx=10;whiteSpace=wrap;" vertex="1" parent="1">
          <mxGeometry x="300" y="160" width="120" height="70" as="geometry" />
        </mxCell>
        <mxCell id="oMDSs8RaTiPiCQMWP8zt-3" value="" style="endArrow=none;html=1;rounded=0;entryX=0;entryY=0.5;entryDx=0;entryDy=0;exitX=1;exitY=0.5;exitDx=0;exitDy=0;exitPerimeter=0;" edge="1" parent="1" source="oMDSs8RaTiPiCQMWP8zt-2" target="Yd8EfODOnMejqtZCiiyT-1">
          <mxGeometry width="50" height="50" relative="1" as="geometry">
            <mxPoint x="770" y="410" as="sourcePoint" />
            <mxPoint x="820" y="360" as="targetPoint" />
          </mxGeometry>
        </mxCell>
        <mxCell id="oMDSs8RaTiPiCQMWP8zt-4" value="&lt;font style=&quot;font-size: 20px;&quot;&gt;Packages&lt;/font&gt;" style="text;html=1;align=center;verticalAlign=middle;resizable=0;points=[];autosize=1;strokeColor=none;fillColor=none;" vertex="1" parent="1">
          <mxGeometry x="305" y="173" width="110" height="40" as="geometry" />
        </mxCell>
      </root>
    </mxGraphModel>
  </diagram>
</mxfile>
